<svg width="63" height="63" viewBox="0 0 63 63" fill="none" xmlns="http://www.w3.org/2000/svg">
<g clip-path="url(#clip0_355_6)">
<path d="M38.0104 6.32046C37.7056 5.005 36.9459 3.8395 35.8654 3.02962C34.785 2.21973 33.4531 1.81752 32.105 1.89396C30.7568 1.97039 29.479 2.52057 28.497 3.44739C27.515 4.37421 26.8919 5.61811 26.7377 6.95959C26.5835 8.30108 26.9081 9.65391 27.6542 10.7794C28.4003 11.9048 29.52 12.7306 30.8156 13.1109C32.1113 13.4913 33.4996 13.4017 34.7357 12.8581C35.9717 12.3145 36.9761 11.3518 37.5714 10.1398C41.1961 10.9645 44.5656 12.6589 47.3891 15.0767C50.2127 17.4945 52.4054 20.563 53.7782 24.0176L57.2727 22.6434C55.6557 18.546 53.051 14.9118 49.6905 12.0641C46.3299 9.21631 42.3176 7.24328 38.0104 6.32046ZM32.4546 9.54527C32.1988 9.55349 31.944 9.5102 31.7052 9.41798C31.4665 9.32575 31.2487 9.18648 31.0648 9.00843C30.881 8.83037 30.7348 8.61718 30.6349 8.38151C30.5351 8.14584 30.4836 7.89251 30.4836 7.63657C30.4836 7.38062 30.5351 7.12729 30.6349 6.89162C30.7348 6.65596 30.881 6.44276 31.0648 6.26471C31.2487 6.08666 31.4665 5.94738 31.7052 5.85516C31.944 5.76294 32.1988 5.71965 32.4546 5.72786C32.9611 5.72786 33.4469 5.92906 33.805 6.2872C34.1631 6.64534 34.3643 7.13107 34.3643 7.63755C34.3643 8.14403 34.1631 8.62977 33.805 8.98791C33.4469 9.34604 32.9611 9.54527 32.4546 9.54527ZM24.054 11.1321L22.6424 7.63952C18.545 9.25655 14.9108 11.8612 12.0631 15.2218C9.21534 18.5823 7.2423 22.5946 6.31948 26.9018C5.00403 27.2066 3.83852 27.9663 3.02864 29.0468C2.21876 30.1273 1.81654 31.4591 1.89298 32.8072C1.96942 34.1554 2.51959 35.4332 3.44641 36.4152C4.37323 37.3972 5.61714 38.0203 6.95862 38.1745C8.3001 38.3287 9.65293 38.0041 10.7784 37.258C11.9039 36.5119 12.7296 35.3923 13.11 34.0966C13.4903 32.801 13.4008 31.4126 12.8572 30.1766C12.3136 28.9405 11.3508 27.9362 10.1389 27.3408C10.9669 23.7119 12.6668 20.3394 15.0914 17.5152C17.516 14.6909 20.5923 12.5 24.054 11.1321ZM7.63461 34.3673C7.38382 34.3673 7.1355 34.3179 6.9038 34.2219C6.67211 34.1259 6.46159 33.9853 6.28425 33.8079C6.10692 33.6306 5.96626 33.4201 5.87029 33.1884C5.77431 32.9567 5.72492 32.7084 5.72492 32.4576C5.72492 32.2068 5.77431 31.9585 5.87029 31.7268C5.96626 31.4951 6.10692 31.2846 6.28425 31.1072C6.46159 30.9299 6.67211 30.7892 6.9038 30.6933C7.1355 30.5973 7.38382 30.5479 7.63461 30.5479C8.14109 30.5479 8.62682 30.7491 8.98496 31.1072C9.3431 31.4654 9.54429 31.9511 9.54429 32.4576C9.54429 32.9641 9.3431 33.4498 8.98496 33.8079C8.62682 34.1661 8.14109 34.3673 7.63461 34.3673ZM32.4546 51.5486C31.3896 51.552 30.3466 51.8523 29.4427 52.4157C28.5389 52.9791 27.81 53.7832 27.3379 54.7379C23.7127 53.9133 20.3426 52.2188 17.5187 49.8006C14.6948 47.3825 12.5018 44.3134 11.1291 40.8582L7.63658 42.2698C9.25887 46.3741 11.8722 50.0128 15.2433 52.861C18.6145 55.7093 22.6384 57.6785 26.9559 58.5927C27.2039 59.6438 27.7439 60.6034 28.5137 61.3608C29.2835 62.1182 30.2516 62.6426 31.3065 62.8736C32.3615 63.1046 33.4602 63.0327 34.476 62.6662C35.4919 62.2997 36.3834 61.6536 37.0479 60.8023C37.7124 59.9511 38.1228 58.9293 38.2317 57.8549C38.3406 56.7805 38.1437 55.6972 37.6635 54.7299C37.1834 53.7626 36.4396 52.9507 35.518 52.3878C34.5964 51.8249 33.5345 51.534 32.4546 51.5486ZM32.4546 59.1853C31.9482 59.1853 31.4624 58.9841 31.1043 58.626C30.7461 58.2679 30.545 57.7821 30.545 57.2757C30.545 56.7692 30.7461 56.2834 31.1043 55.9253C31.4624 55.5672 31.9482 55.366 32.4546 55.366C32.9611 55.366 33.4469 55.5672 33.805 55.9253C34.1631 56.2834 34.3643 56.7692 34.3643 57.2757C34.3643 57.7821 34.1631 58.2679 33.805 58.626C33.4469 58.9841 32.9611 59.1853 32.4546 59.1853ZM62.9998 32.4556C63.0033 31.4334 62.7332 30.4289 62.2176 29.5463C61.702 28.6636 60.9596 27.935 60.0675 27.436C59.1754 26.937 58.166 26.6858 57.144 26.7084C56.122 26.731 55.1247 27.0267 54.2556 27.5646C53.3864 28.1026 52.677 28.8634 52.2009 29.768C51.7249 30.6725 51.4995 31.688 51.5482 32.7091C51.5969 33.7301 51.9179 34.7195 52.4779 35.5747C53.038 36.4299 53.8166 37.1196 54.733 37.5724C53.9081 41.1972 52.2135 44.5669 49.7953 47.3904C47.3772 50.214 44.3082 52.4067 40.8533 53.7791L42.2669 57.2737C46.3712 55.6514 50.0099 53.038 52.8581 49.6669C55.7064 46.2958 57.6755 42.2719 58.5898 37.9543C59.8326 37.6604 60.9415 36.9597 61.7405 35.9635C62.5395 34.9672 62.9827 33.7326 62.9998 32.4556ZM57.2707 34.3653C56.7643 34.3653 56.2785 34.1641 55.9204 33.806C55.5622 33.4478 55.361 32.9621 55.361 32.4556C55.361 31.9491 55.5622 31.4634 55.9204 31.1053C56.2785 30.7471 56.7643 30.5459 57.2707 30.5459C57.7772 30.5459 58.263 30.7471 58.6211 31.1053C58.9792 31.4634 59.1804 31.9491 59.1804 32.4556C59.1804 32.9621 58.9792 33.4478 58.6211 33.806C58.263 34.1641 57.7772 34.3653 57.2707 34.3653Z" fill="#131313"/>
<path d="M37.7801 32.1886C38.8664 31.128 39.6118 29.7677 39.9213 28.2814C40.2307 26.7951 40.0902 25.2503 39.5176 23.8443C38.945 22.4382 37.9663 21.2348 36.7065 20.3876C35.4467 19.5404 33.963 19.0879 32.4448 19.0879C30.9267 19.0879 29.443 19.5404 28.1832 20.3876C26.9234 21.2348 25.9447 22.4382 25.3721 23.8443C24.7995 25.2503 24.6589 26.7951 24.9684 28.2814C25.2779 29.7677 26.0233 31.128 27.1095 32.1886C25.8166 33.0621 24.7576 34.2392 24.0252 35.6169C23.2927 36.9946 22.9092 38.5309 22.9082 40.0912V43.9086H41.9992V40.0892C41.9962 38.5273 41.61 36.99 40.8744 35.6122C40.1388 34.2344 39.0763 33.0601 37.7801 32.1886ZM28.6353 26.7254C28.6353 26.2238 28.7341 25.7271 28.926 25.2637C29.118 24.8004 29.3993 24.3793 29.754 24.0246C30.1086 23.67 30.5297 23.3887 30.9931 23.1967C31.4564 23.0048 31.9531 22.906 32.4547 22.906C32.9562 22.906 33.4529 23.0048 33.9163 23.1967C34.3797 23.3887 34.8007 23.67 35.1554 24.0246C35.51 24.3793 35.7914 24.8004 35.9833 25.2637C36.1753 25.7271 36.274 26.2238 36.274 26.7254C36.274 27.7383 35.8716 28.7098 35.1554 29.4261C34.4391 30.1423 33.4676 30.5447 32.4547 30.5447C31.4417 30.5447 30.4702 30.1423 29.754 29.4261C29.0377 28.7098 28.6353 27.7383 28.6353 26.7254ZM26.7256 40.0892C26.7115 39.3281 26.8492 38.5717 27.1308 37.8644C27.4123 37.1571 27.832 36.513 28.3653 35.9697C28.8986 35.4264 29.5348 34.9949 30.2368 34.7003C30.9387 34.4057 31.6924 34.254 32.4537 34.254C33.215 34.254 33.9686 34.4057 34.6706 34.7003C35.3726 34.9949 36.0088 35.4264 36.5421 35.9697C37.0754 36.513 37.4951 37.1571 37.7766 37.8644C38.0581 38.5717 38.1959 39.3281 38.1818 40.0892H26.7256Z" fill="#131313"/>
</g>
<defs>
<clipPath id="clip0_355_6">
<rect width="63" height="63" fill="white"/>
</clipPath>
</defs>
</svg>
